# xmcd
#
# Track frame offsets:
# 150
# 18745
# 31082
# 41924
# 45040
# 54251
# 65606
# 78370
# 87346
# 101502
# 115807
# 136934
# 147767
#
# Disc length: 2001 seconds
#
#
# Revision: 0
# Processed by: cddbd v1.5.2PL0 Copyright (c) Steve Scherf et al.
# Submitted via: FreeRIP 2.951 
#
DISCID=a107cf0d
DTITLE=Zion I - Curb Servin'
DYEAR=2003
DGENRE=Hip-Hop
TTITLE0=Husslin (Intro)
TTITLE1=Do It
TTITLE2=Curb Servin - D.U.S.T., Zion I, Deuce Eclipse
TTITLE3=Came 2 Bust - D.U.S.T., Zion I
TTITLE4=Cheeba Cheeba [Tex Mix] - Aceyalone, Zion I
TTITLE5=Freestyle, No. 1 - Zion I, Deuce Eclipse
TTITLE6=Flow [Remix] - Gouche, Zion I, Goapele
TTITLE7=Same Cycle - D.U.S.T., Zion I
TTITLE8=Alli Memeti - Zion I, Deuce Eclipse
TTITLE9=Freestyle, No. 2 - D.U.S.T, Zion I
TTITLE10=Speakers
TTITLE11=Mighty Onez - Zion I, Deuce Eclipse
TTITLE12=Critical [Madlib Remix] - Zion I, Planet Asia
EXTD=Goapele  \tVocals \n  Louis Sweeny \tDesign, Layout Design \n  Anthony Anderson \tExecutive Producer \n  Josh Jones \tConga \n  Zion I \tMain Performer \n  Justin Weis \tMastering \n  Martin Luther \tVocals \n  Vinroc \tCut \n  DJ Romes \tCut \n  
EXTD=Jason Moss \tMixing \n  Deuce Eclipse \tMixing \n  Madlib \tMixing, Producer 
EXTT0=
EXTT1=
EXTT2=
EXTT3=
EXTT4=
EXTT5=
EXTT6=
EXTT7=
EXTT8=
EXTT9=
EXTT10=
EXTT11=
EXTT12=
PLAYORDER=
